<mxfile host="app.diagrams.net" modified="2023-04-13T14:12:34.587Z" agent="Mozilla/5.0 (Windows NT 10.0; Win64; x64) AppleWebKit/537.36 (KHTML, like Gecko) Chrome/111.0.0.0 Safari/537.36" etag="UcU5pdR5iKDBErdeV5Q9" version="21.1.5" type="device">
  <diagram name="Page-1" id="e7e014a7-5840-1c2e-5031-d8a46d1fe8dd">
    <mxGraphModel dx="1050" dy="587" grid="1" gridSize="10" guides="1" tooltips="1" connect="1" arrows="1" fold="1" page="1" pageScale="1" pageWidth="1169" pageHeight="826" background="none" math="0" shadow="0">
      <root>
        <mxCell id="0" />
        <mxCell id="1" parent="0" />
        <mxCell id="z5lGmqAgz2JXUimjmWrz-45" value="Map(package::Model)" style="swimlane;fontStyle=1;align=center;verticalAlign=top;childLayout=stackLayout;horizontal=1;startSize=26;horizontalStack=0;resizeParent=1;resizeParentMax=0;resizeLast=0;collapsible=1;marginBottom=0;whiteSpace=wrap;html=1;" parent="1" vertex="1">
          <mxGeometry x="770" width="160" height="120" as="geometry">
            <mxRectangle x="770" width="60" height="30" as="alternateBounds" />
          </mxGeometry>
        </mxCell>
        <mxCell id="z5lGmqAgz2JXUimjmWrz-46" value="- cells: Arraylist&lt;br&gt;- size: int" style="text;strokeColor=none;fillColor=none;align=left;verticalAlign=top;spacingLeft=4;spacingRight=4;overflow=hidden;rotatable=0;points=[[0,0.5],[1,0.5]];portConstraint=eastwest;whiteSpace=wrap;html=1;" parent="z5lGmqAgz2JXUimjmWrz-45" vertex="1">
          <mxGeometry y="26" width="160" height="44" as="geometry" />
        </mxCell>
        <mxCell id="z5lGmqAgz2JXUimjmWrz-47" value="" style="line;strokeWidth=1;fillColor=none;align=left;verticalAlign=middle;spacingTop=-1;spacingLeft=3;spacingRight=3;rotatable=0;labelPosition=right;points=[];portConstraint=eastwest;strokeColor=inherit;" parent="z5lGmqAgz2JXUimjmWrz-45" vertex="1">
          <mxGeometry y="70" width="160" height="8" as="geometry" />
        </mxCell>
        <mxCell id="z5lGmqAgz2JXUimjmWrz-48" value="+ getCells(): Arraylist&lt;br&gt;+ getSize(): int" style="text;strokeColor=none;fillColor=none;align=left;verticalAlign=top;spacingLeft=4;spacingRight=4;overflow=hidden;rotatable=0;points=[[0,0.5],[1,0.5]];portConstraint=eastwest;whiteSpace=wrap;html=1;" parent="z5lGmqAgz2JXUimjmWrz-45" vertex="1">
          <mxGeometry y="78" width="160" height="42" as="geometry" />
        </mxCell>
        <mxCell id="z5lGmqAgz2JXUimjmWrz-59" value="MapCell" style="swimlane;fontStyle=1;align=center;verticalAlign=top;childLayout=stackLayout;horizontal=1;startSize=26;horizontalStack=0;resizeParent=1;resizeParentMax=0;resizeLast=0;collapsible=1;marginBottom=0;whiteSpace=wrap;html=1;" parent="1" vertex="1">
          <mxGeometry x="755" y="250" width="205" height="290" as="geometry" />
        </mxCell>
        <mxCell id="z5lGmqAgz2JXUimjmWrz-60" value="- texture: Texture&lt;br style=&quot;border-color: var(--border-color);&quot;&gt;- building: Building&lt;br style=&quot;border-color: var(--border-color);&quot;&gt;- soldiers: Arraylist&amp;lt;People&amp;gt;&lt;br style=&quot;border-color: var(--border-color);&quot;&gt;- X: int&lt;br style=&quot;border-color: var(--border-color);&quot;&gt;- Y: int&lt;br&gt;- isPassable(): boolean" style="text;strokeColor=none;fillColor=none;align=left;verticalAlign=top;spacingLeft=4;spacingRight=4;overflow=hidden;rotatable=0;points=[[0,0.5],[1,0.5]];portConstraint=eastwest;whiteSpace=wrap;html=1;" parent="z5lGmqAgz2JXUimjmWrz-59" vertex="1">
          <mxGeometry y="26" width="205" height="104" as="geometry" />
        </mxCell>
        <mxCell id="z5lGmqAgz2JXUimjmWrz-61" value="" style="line;strokeWidth=1;fillColor=none;align=left;verticalAlign=middle;spacingTop=-1;spacingLeft=3;spacingRight=3;rotatable=0;labelPosition=right;points=[];portConstraint=eastwest;strokeColor=inherit;" parent="z5lGmqAgz2JXUimjmWrz-59" vertex="1">
          <mxGeometry y="130" width="205" height="8" as="geometry" />
        </mxCell>
        <mxCell id="z5lGmqAgz2JXUimjmWrz-62" value="+ getters()&lt;br style=&quot;border-color: var(--border-color);&quot;&gt;+ hasOil(): boolean&lt;br&gt;+ setTexture(texture: String): void&lt;br&gt;+ clear(): void&lt;br&gt;+ setBuilding(): void&lt;br&gt;+ addSoldier(): void&lt;br&gt;+ setIsPassable(String texture): void" style="text;strokeColor=none;fillColor=none;align=left;verticalAlign=top;spacingLeft=4;spacingRight=4;overflow=hidden;rotatable=0;points=[[0,0.5],[1,0.5]];portConstraint=eastwest;whiteSpace=wrap;html=1;" parent="z5lGmqAgz2JXUimjmWrz-59" vertex="1">
          <mxGeometry y="138" width="205" height="152" as="geometry" />
        </mxCell>
        <mxCell id="Twl5WJDbiwE2-hW6iMIy-1" value="" style="endArrow=diamondThin;endFill=0;endSize=24;html=1;rounded=0;exitX=0.463;exitY=0.003;exitDx=0;exitDy=0;exitPerimeter=0;entryX=0.505;entryY=1.09;entryDx=0;entryDy=0;entryPerimeter=0;" edge="1" parent="1" source="z5lGmqAgz2JXUimjmWrz-59" target="z5lGmqAgz2JXUimjmWrz-48">
          <mxGeometry width="160" relative="1" as="geometry">
            <mxPoint x="770" y="170" as="sourcePoint" />
            <mxPoint x="930" y="170" as="targetPoint" />
          </mxGeometry>
        </mxCell>
      </root>
    </mxGraphModel>
  </diagram>
</mxfile>
